<mxfile host="app.diagrams.net" modified="2024-04-19T07:09:21.660Z" agent="Mozilla/5.0 (Windows NT 10.0; Win64; x64) AppleWebKit/537.36 (KHTML, like Gecko) Chrome/123.0.0.0 Safari/537.36 OPR/109.0.0.0" version="24.2.5" etag="BgcavevnW4xCGhIh1LRi" type="github">
  <diagram name="Strona-1" id="LtC-C4iExrp6A5G1D2AR">
    <mxGraphModel>
      <root>
        <mxCell id="0" />
        <mxCell id="1" parent="0" />
      </root>
    </mxGraphModel>
  </diagram>
</mxfile>
